<mxfile host="app.diagrams.net" modified="2024-05-26T05:54:39.775Z" agent="Mozilla/5.0 (Macintosh; Intel Mac OS X 10_15_7) AppleWebKit/537.36 (KHTML, like Gecko) Chrome/124.0.0.0 Safari/537.36" etag="HZZdZerZEk_AlWuP3oc3" version="24.4.8" type="github">
  <diagram name="第 1 页" id="8tZDHi_51XAIORdVNVyu">
    <mxGraphModel dx="821" dy="441" grid="1" gridSize="10" guides="1" tooltips="1" connect="1" arrows="1" fold="1" page="1" pageScale="1" pageWidth="827" pageHeight="1169" math="0" shadow="0">
      <root>
        <mxCell id="0" />
        <mxCell id="1" parent="0" />
        <mxCell id="bpGSqtFWPZBu1xX70-Fc-19" value="" style="rounded=1;whiteSpace=wrap;html=1;absoluteArcSize=1;arcSize=14;strokeWidth=2;dashed=1;" vertex="1" parent="1">
          <mxGeometry x="250" y="540" width="300" height="100" as="geometry" />
        </mxCell>
        <mxCell id="bpGSqtFWPZBu1xX70-Fc-17" value="" style="rounded=1;whiteSpace=wrap;html=1;absoluteArcSize=1;arcSize=14;strokeWidth=2;dashed=1;" vertex="1" parent="1">
          <mxGeometry x="250" y="430" width="300" height="100" as="geometry" />
        </mxCell>
        <mxCell id="bpGSqtFWPZBu1xX70-Fc-15" value="" style="rounded=1;whiteSpace=wrap;html=1;absoluteArcSize=1;arcSize=14;strokeWidth=2;dashed=1;" vertex="1" parent="1">
          <mxGeometry x="250" y="160" width="300" height="260" as="geometry" />
        </mxCell>
        <mxCell id="bpGSqtFWPZBu1xX70-Fc-4" style="edgeStyle=orthogonalEdgeStyle;rounded=0;orthogonalLoop=1;jettySize=auto;html=1;entryX=0.5;entryY=0;entryDx=0;entryDy=0;" edge="1" parent="1" source="bpGSqtFWPZBu1xX70-Fc-2" target="bpGSqtFWPZBu1xX70-Fc-3">
          <mxGeometry relative="1" as="geometry" />
        </mxCell>
        <mxCell id="bpGSqtFWPZBu1xX70-Fc-2" value="start" style="strokeWidth=2;html=1;shape=mxgraph.flowchart.start_1;whiteSpace=wrap;" vertex="1" parent="1">
          <mxGeometry x="313" y="70" width="100" height="60" as="geometry" />
        </mxCell>
        <mxCell id="bpGSqtFWPZBu1xX70-Fc-6" style="edgeStyle=orthogonalEdgeStyle;rounded=0;orthogonalLoop=1;jettySize=auto;html=1;" edge="1" parent="1" source="bpGSqtFWPZBu1xX70-Fc-3" target="bpGSqtFWPZBu1xX70-Fc-5">
          <mxGeometry relative="1" as="geometry" />
        </mxCell>
        <mxCell id="bpGSqtFWPZBu1xX70-Fc-3" value="check pull param" style="rounded=1;whiteSpace=wrap;html=1;absoluteArcSize=1;arcSize=14;strokeWidth=2;" vertex="1" parent="1">
          <mxGeometry x="313" y="180" width="100" height="40" as="geometry" />
        </mxCell>
        <mxCell id="bpGSqtFWPZBu1xX70-Fc-8" style="edgeStyle=orthogonalEdgeStyle;rounded=0;orthogonalLoop=1;jettySize=auto;html=1;entryX=0.5;entryY=0;entryDx=0;entryDy=0;" edge="1" parent="1" source="bpGSqtFWPZBu1xX70-Fc-5" target="bpGSqtFWPZBu1xX70-Fc-7">
          <mxGeometry relative="1" as="geometry" />
        </mxCell>
        <mxCell id="bpGSqtFWPZBu1xX70-Fc-5" value="sync pull msg" style="rounded=1;whiteSpace=wrap;html=1;absoluteArcSize=1;arcSize=14;strokeWidth=2;" vertex="1" parent="1">
          <mxGeometry x="313" y="270" width="100" height="40" as="geometry" />
        </mxCell>
        <mxCell id="bpGSqtFWPZBu1xX70-Fc-11" value="" style="edgeStyle=orthogonalEdgeStyle;rounded=0;orthogonalLoop=1;jettySize=auto;html=1;" edge="1" parent="1" source="bpGSqtFWPZBu1xX70-Fc-7" target="bpGSqtFWPZBu1xX70-Fc-9">
          <mxGeometry relative="1" as="geometry" />
        </mxCell>
        <mxCell id="bpGSqtFWPZBu1xX70-Fc-7" value="decode and filter" style="rounded=1;whiteSpace=wrap;html=1;absoluteArcSize=1;arcSize=14;strokeWidth=2;" vertex="1" parent="1">
          <mxGeometry x="313" y="370" width="100" height="40" as="geometry" />
        </mxCell>
        <mxCell id="bpGSqtFWPZBu1xX70-Fc-12" value="" style="edgeStyle=orthogonalEdgeStyle;rounded=0;orthogonalLoop=1;jettySize=auto;html=1;" edge="1" parent="1" source="bpGSqtFWPZBu1xX70-Fc-9" target="bpGSqtFWPZBu1xX70-Fc-10">
          <mxGeometry relative="1" as="geometry" />
        </mxCell>
        <mxCell id="bpGSqtFWPZBu1xX70-Fc-9" value="consume msg" style="rounded=1;whiteSpace=wrap;html=1;absoluteArcSize=1;arcSize=14;strokeWidth=2;" vertex="1" parent="1">
          <mxGeometry x="313" y="460" width="100" height="40" as="geometry" />
        </mxCell>
        <mxCell id="bpGSqtFWPZBu1xX70-Fc-14" value="" style="edgeStyle=orthogonalEdgeStyle;rounded=0;orthogonalLoop=1;jettySize=auto;html=1;" edge="1" parent="1" source="bpGSqtFWPZBu1xX70-Fc-10" target="bpGSqtFWPZBu1xX70-Fc-13">
          <mxGeometry relative="1" as="geometry" />
        </mxCell>
        <mxCell id="bpGSqtFWPZBu1xX70-Fc-10" value="update offset" style="rounded=1;whiteSpace=wrap;html=1;absoluteArcSize=1;arcSize=14;strokeWidth=2;" vertex="1" parent="1">
          <mxGeometry x="313" y="570" width="100" height="40" as="geometry" />
        </mxCell>
        <mxCell id="bpGSqtFWPZBu1xX70-Fc-13" value="end" style="strokeWidth=2;html=1;shape=mxgraph.flowchart.terminator;whiteSpace=wrap;" vertex="1" parent="1">
          <mxGeometry x="326.5" y="680" width="73" height="40" as="geometry" />
        </mxCell>
        <mxCell id="bpGSqtFWPZBu1xX70-Fc-16" value="pull method" style="text;html=1;align=center;verticalAlign=middle;whiteSpace=wrap;rounded=0;fontSize=16;" vertex="1" parent="1">
          <mxGeometry x="440" y="240" width="70" height="40" as="geometry" />
        </mxCell>
        <mxCell id="bpGSqtFWPZBu1xX70-Fc-18" value="developer customize" style="text;html=1;align=center;verticalAlign=middle;whiteSpace=wrap;rounded=0;fontSize=16;" vertex="1" parent="1">
          <mxGeometry x="430" y="465" width="60" height="30" as="geometry" />
        </mxCell>
        <mxCell id="bpGSqtFWPZBu1xX70-Fc-20" value="&lt;font style=&quot;font-size: 16px;&quot;&gt;update method&lt;/font&gt;" style="text;html=1;align=center;verticalAlign=middle;whiteSpace=wrap;rounded=0;" vertex="1" parent="1">
          <mxGeometry x="430" y="570" width="60" height="30" as="geometry" />
        </mxCell>
      </root>
    </mxGraphModel>
  </diagram>
</mxfile>
